<?xml version="1.0" encoding="UTF-8" standalone="no"?>
<!DOCTYPE svg PUBLIC "-//W3C//DTD SVG 1.1//EN"
 "http://www.w3.org/Graphics/SVG/1.1/DTD/svg11.dtd">
<!-- Generated by graphviz version 2.42.3 (20191010.1750)
 -->
<!-- Title: %3 Pages: 1 -->
<svg width="304pt" height="332pt"
 viewBox="0.00 0.00 304.10 332.00" xmlns="http://www.w3.org/2000/svg" xmlns:xlink="http://www.w3.org/1999/xlink">
<g id="graph0" class="graph" transform="scale(1 1) rotate(0) translate(4 328)">
<title>%3</title>
<polygon fill="white" stroke="transparent" points="-4,4 -4,-328 300.1,-328 300.1,4 -4,4"/>
<!-- x -->
<g id="node1" class="node">
<title>x</title>
<ellipse fill="none" stroke="black" cx="160.81" cy="-306" rx="27" ry="18"/>
<text text-anchor="middle" x="160.81" y="-301.8" font-family="Times,serif" font-size="14.00">x</text>
</g>
<!-- StandardScaler -->
<g id="node2" class="node">
<title>StandardScaler</title>
<ellipse fill="none" stroke="black" cx="160.81" cy="-234" rx="63.78" ry="18"/>
<text text-anchor="middle" x="160.81" y="-229.8" font-family="Times,serif" font-size="14.00">StandardScaler</text>
</g>
<!-- x&#45;&gt;StandardScaler -->
<g id="edge1" class="edge">
<title>x&#45;&gt;StandardScaler</title>
<path fill="none" stroke="black" d="M160.81,-287.7C160.81,-279.98 160.81,-270.71 160.81,-262.11"/>
<polygon fill="black" stroke="black" points="164.31,-262.1 160.81,-252.1 157.31,-262.1 164.31,-262.1"/>
</g>
<!-- PolynomialExtender -->
<g id="node3" class="node">
<title>PolynomialExtender</title>
<ellipse fill="none" stroke="black" cx="82.81" cy="-162" rx="82.61" ry="18"/>
<text text-anchor="middle" x="82.81" y="-157.8" font-family="Times,serif" font-size="14.00">PolynomialExtender</text>
</g>
<!-- StandardScaler&#45;&gt;PolynomialExtender -->
<g id="edge5" class="edge">
<title>StandardScaler&#45;&gt;PolynomialExtender</title>
<path fill="none" stroke="black" d="M142.32,-216.41C132.39,-207.5 119.97,-196.36 109.06,-186.56"/>
<polygon fill="black" stroke="black" points="111.21,-183.79 101.43,-179.71 106.53,-189 111.21,-183.79"/>
</g>
<!-- RBFSampler -->
<g id="node4" class="node">
<title>RBFSampler</title>
<ellipse fill="none" stroke="black" cx="239.81" cy="-162" rx="56.09" ry="18"/>
<text text-anchor="middle" x="239.81" y="-157.8" font-family="Times,serif" font-size="14.00">RBFSampler</text>
</g>
<!-- StandardScaler&#45;&gt;RBFSampler -->
<g id="edge6" class="edge">
<title>StandardScaler&#45;&gt;RBFSampler</title>
<path fill="none" stroke="black" d="M179.53,-216.41C189.74,-207.37 202.53,-196.03 213.7,-186.13"/>
<polygon fill="black" stroke="black" points="216.33,-188.48 221.49,-179.23 211.69,-183.24 216.33,-188.48"/>
</g>
<!-- LinearRegression -->
<g id="node5" class="node">
<title>LinearRegression</title>
<ellipse fill="none" stroke="black" cx="160.81" cy="-90" rx="72.46" ry="18"/>
<text text-anchor="middle" x="160.81" y="-85.8" font-family="Times,serif" font-size="14.00">LinearRegression</text>
</g>
<!-- PolynomialExtender&#45;&gt;LinearRegression -->
<g id="edge3" class="edge">
<title>PolynomialExtender&#45;&gt;LinearRegression</title>
<path fill="none" stroke="black" d="M101.29,-144.41C111.3,-135.43 123.82,-124.19 134.79,-114.34"/>
<polygon fill="black" stroke="black" points="137.35,-116.75 142.45,-107.47 132.67,-111.54 137.35,-116.75"/>
</g>
<!-- RBFSampler&#45;&gt;LinearRegression -->
<g id="edge4" class="edge">
<title>RBFSampler&#45;&gt;LinearRegression</title>
<path fill="none" stroke="black" d="M221.48,-144.76C211.26,-135.71 198.35,-124.27 187.07,-114.28"/>
<polygon fill="black" stroke="black" points="189.38,-111.65 179.58,-107.63 184.74,-116.88 189.38,-111.65"/>
</g>
<!-- y -->
<g id="node6" class="node">
<title>y</title>
<ellipse fill="none" stroke="black" cx="160.81" cy="-18" rx="27" ry="18"/>
<text text-anchor="middle" x="160.81" y="-13.8" font-family="Times,serif" font-size="14.00">y</text>
</g>
<!-- LinearRegression&#45;&gt;y -->
<g id="edge2" class="edge">
<title>LinearRegression&#45;&gt;y</title>
<path fill="none" stroke="black" d="M160.81,-71.7C160.81,-63.98 160.81,-54.71 160.81,-46.11"/>
<polygon fill="black" stroke="black" points="164.31,-46.1 160.81,-36.1 157.31,-46.1 164.31,-46.1"/>
</g>
</g>
</svg>
