<?xml version="1.0" encoding="UTF-8" standalone="no"?>
<!DOCTYPE svg PUBLIC "-//W3C//DTD SVG 1.1//EN"
 "http://www.w3.org/Graphics/SVG/1.1/DTD/svg11.dtd">
<!-- Generated by graphviz version 2.42.3 (20191010.1750)
 -->
<!-- Title: %3 Pages: 1 -->
<svg width="196pt" height="262pt"
 viewBox="0.00 0.00 196.00 262.00" xmlns="http://www.w3.org/2000/svg" xmlns:xlink="http://www.w3.org/1999/xlink">
<g id="graph0" class="graph" transform="scale(1 1) rotate(0) translate(4 258)">
<title>%3</title>
<polygon fill="white" stroke="transparent" points="-4,4 -4,-258 192,-258 192,4 -4,4"/>
<g id="clust1" class="cluster">
<title>cluster_RandomUnderSampler</title>
<polygon fill="none" stroke="black" points="8,-64 8,-138 180,-138 180,-64 8,-64"/>
<text text-anchor="middle" x="94" y="-122.8" font-family="Times,serif" font-size="14.00">RandomUnderSampler</text>
</g>
<!-- x -->
<g id="node1" class="node">
<title>x</title>
<ellipse fill="none" stroke="black" cx="94" cy="-236" rx="27" ry="18"/>
<text text-anchor="middle" x="94" y="-231.8" font-family="Times,serif" font-size="14.00">x</text>
</g>
<!-- StandardScaler -->
<g id="node2" class="node">
<title>StandardScaler</title>
<ellipse fill="none" stroke="black" cx="94" cy="-164" rx="63.78" ry="18"/>
<text text-anchor="middle" x="94" y="-159.8" font-family="Times,serif" font-size="14.00">StandardScaler</text>
</g>
<!-- x&#45;&gt;StandardScaler -->
<g id="edge1" class="edge">
<title>x&#45;&gt;StandardScaler</title>
<path fill="none" stroke="black" d="M94,-217.7C94,-209.98 94,-200.71 94,-192.11"/>
<polygon fill="black" stroke="black" points="97.5,-192.1 94,-182.1 90.5,-192.1 97.5,-192.1"/>
</g>
<!-- LogisticRegression -->
<g id="node3" class="node">
<title>LogisticRegression</title>
<ellipse fill="none" stroke="black" cx="94" cy="-90" rx="78.28" ry="18"/>
<text text-anchor="middle" x="94" y="-85.8" font-family="Times,serif" font-size="14.00">LogisticRegression</text>
</g>
<!-- StandardScaler&#45;&gt;LogisticRegression -->
<g id="edge3" class="edge">
<title>StandardScaler&#45;&gt;LogisticRegression</title>
<path fill="none" stroke="black" d="M94,-145.94C94,-137.81 94,-127.88 94,-118.7"/>
<polygon fill="black" stroke="black" points="97.5,-118.44 94,-108.44 90.5,-118.44 97.5,-118.44"/>
</g>
<!-- y -->
<g id="node4" class="node">
<title>y</title>
<ellipse fill="none" stroke="black" cx="94" cy="-18" rx="27" ry="18"/>
<text text-anchor="middle" x="94" y="-13.8" font-family="Times,serif" font-size="14.00">y</text>
</g>
<!-- LogisticRegression&#45;&gt;y -->
<g id="edge2" class="edge">
<title>LogisticRegression&#45;&gt;y</title>
<path fill="none" stroke="black" d="M94,-71.7C94,-63.98 94,-54.71 94,-46.11"/>
<polygon fill="black" stroke="black" points="97.5,-46.1 94,-36.1 90.5,-46.1 97.5,-46.1"/>
</g>
</g>
</svg>
