<?xml version="1.0" encoding="UTF-8" standalone="no"?>
<!DOCTYPE svg PUBLIC "-//W3C//DTD SVG 1.1//EN"
 "http://www.w3.org/Graphics/SVG/1.1/DTD/svg11.dtd">
<!-- Generated by graphviz version 2.42.3 (20191010.1750)
 -->
<!-- Title: %3 Pages: 1 -->
<svg width="914pt" height="404pt"
 viewBox="0.00 0.00 914.46 404.00" xmlns="http://www.w3.org/2000/svg" xmlns:xlink="http://www.w3.org/1999/xlink">
<g id="graph0" class="graph" transform="scale(1 1) rotate(0) translate(4 400)">
<title>%3</title>
<polygon fill="white" stroke="transparent" points="-4,4 -4,-400 910.46,-400 910.46,4 -4,4"/>
<!-- x -->
<g id="node1" class="node">
<title>x</title>
<ellipse fill="none" stroke="black" cx="539.02" cy="-378" rx="27" ry="18"/>
<text text-anchor="middle" x="539.02" y="-373.8" font-family="Times,serif" font-size="14.00">x</text>
</g>
<!-- add_time_features -->
<g id="node2" class="node">
<title>add_time_features</title>
<ellipse fill="none" stroke="black" cx="539.02" cy="-306" rx="75.34" ry="18"/>
<text text-anchor="middle" x="539.02" y="-301.8" font-family="Times,serif" font-size="14.00">add_time_features</text>
</g>
<!-- x&#45;&gt;add_time_features -->
<g id="edge1" class="edge">
<title>x&#45;&gt;add_time_features</title>
<path fill="none" stroke="black" d="M539.02,-359.7C539.02,-351.98 539.02,-342.71 539.02,-334.11"/>
<polygon fill="black" stroke="black" points="542.52,-334.1 539.02,-324.1 535.52,-334.1 542.52,-334.1"/>
</g>
<!-- [&#39;clouds&#39;, &#39;humidity&#39;, &#39;pressure&#39;, &#39;temperature&#39;, &#39;wind&#39;] -->
<g id="node3" class="node">
<title>[&#39;clouds&#39;, &#39;humidity&#39;, &#39;pressure&#39;, &#39;temperature&#39;, &#39;wind&#39;]</title>
<ellipse fill="none" stroke="black" cx="194.02" cy="-234" rx="194.05" ry="18"/>
<text text-anchor="middle" x="194.02" y="-229.8" font-family="Times,serif" font-size="14.00">[&#39;clouds&#39;, &#39;humidity&#39;, &#39;pressure&#39;, &#39;temperature&#39;, &#39;wind&#39;]</text>
</g>
<!-- add_time_features&#45;&gt;[&#39;clouds&#39;, &#39;humidity&#39;, &#39;pressure&#39;, &#39;temperature&#39;, &#39;wind&#39;] -->
<g id="edge2" class="edge">
<title>add_time_features&#45;&gt;[&#39;clouds&#39;, &#39;humidity&#39;, &#39;pressure&#39;, &#39;temperature&#39;, &#39;wind&#39;]</title>
<path fill="none" stroke="black" d="M483.59,-293.75C428.9,-282.66 344.48,-265.53 280.87,-252.62"/>
<polygon fill="black" stroke="black" points="281.35,-249.15 270.85,-250.59 279.96,-256.01 281.35,-249.15"/>
</g>
<!-- target_mean_by_station_and_hour -->
<g id="node4" class="node">
<title>target_mean_by_station_and_hour</title>
<ellipse fill="none" stroke="black" cx="539.02" cy="-234" rx="132.99" ry="18"/>
<text text-anchor="middle" x="539.02" y="-229.8" font-family="Times,serif" font-size="14.00">target_mean_by_station_and_hour</text>
</g>
<!-- add_time_features&#45;&gt;target_mean_by_station_and_hour -->
<g id="edge3" class="edge">
<title>add_time_features&#45;&gt;target_mean_by_station_and_hour</title>
<path fill="none" stroke="black" d="M539.02,-287.7C539.02,-279.98 539.02,-270.71 539.02,-262.11"/>
<polygon fill="black" stroke="black" points="542.52,-262.1 539.02,-252.1 535.52,-262.1 542.52,-262.1"/>
</g>
<!-- target_ewm_0.5_by_station -->
<g id="node5" class="node">
<title>target_ewm_0.5_by_station</title>
<ellipse fill="none" stroke="black" cx="798.02" cy="-234" rx="108.38" ry="18"/>
<text text-anchor="middle" x="798.02" y="-229.8" font-family="Times,serif" font-size="14.00">target_ewm_0.5_by_station</text>
</g>
<!-- add_time_features&#45;&gt;target_ewm_0.5_by_station -->
<g id="edge4" class="edge">
<title>add_time_features&#45;&gt;target_ewm_0.5_by_station</title>
<path fill="none" stroke="black" d="M587.13,-292C628.56,-280.8 688.69,-264.55 734.15,-252.26"/>
<polygon fill="black" stroke="black" points="735.17,-255.61 743.91,-249.63 733.34,-248.86 735.17,-255.61"/>
</g>
<!-- StandardScaler -->
<g id="node6" class="node">
<title>StandardScaler</title>
<ellipse fill="none" stroke="black" cx="539.02" cy="-162" rx="63.78" ry="18"/>
<text text-anchor="middle" x="539.02" y="-157.8" font-family="Times,serif" font-size="14.00">StandardScaler</text>
</g>
<!-- [&#39;clouds&#39;, &#39;humidity&#39;, &#39;pressure&#39;, &#39;temperature&#39;, &#39;wind&#39;]&#45;&gt;StandardScaler -->
<g id="edge6" class="edge">
<title>[&#39;clouds&#39;, &#39;humidity&#39;, &#39;pressure&#39;, &#39;temperature&#39;, &#39;wind&#39;]&#45;&gt;StandardScaler</title>
<path fill="none" stroke="black" d="M271.02,-217.38C333.78,-204.64 421.17,-186.91 478.87,-175.2"/>
<polygon fill="black" stroke="black" points="479.83,-178.58 488.93,-173.16 478.44,-171.72 479.83,-178.58"/>
</g>
<!-- target_mean_by_station_and_hour&#45;&gt;StandardScaler -->
<g id="edge7" class="edge">
<title>target_mean_by_station_and_hour&#45;&gt;StandardScaler</title>
<path fill="none" stroke="black" d="M539.02,-215.7C539.02,-207.98 539.02,-198.71 539.02,-190.11"/>
<polygon fill="black" stroke="black" points="542.52,-190.1 539.02,-180.1 535.52,-190.1 542.52,-190.1"/>
</g>
<!-- target_ewm_0.5_by_station&#45;&gt;StandardScaler -->
<g id="edge8" class="edge">
<title>target_ewm_0.5_by_station&#45;&gt;StandardScaler</title>
<path fill="none" stroke="black" d="M743.73,-218.33C699.46,-206.36 637.25,-189.55 593.06,-177.6"/>
<polygon fill="black" stroke="black" points="593.92,-174.21 583.35,-174.98 592.09,-180.97 593.92,-174.21"/>
</g>
<!-- LinearRegression -->
<g id="node7" class="node">
<title>LinearRegression</title>
<ellipse fill="none" stroke="black" cx="539.02" cy="-90" rx="72.46" ry="18"/>
<text text-anchor="middle" x="539.02" y="-85.8" font-family="Times,serif" font-size="14.00">LinearRegression</text>
</g>
<!-- StandardScaler&#45;&gt;LinearRegression -->
<g id="edge9" class="edge">
<title>StandardScaler&#45;&gt;LinearRegression</title>
<path fill="none" stroke="black" d="M539.02,-143.7C539.02,-135.98 539.02,-126.71 539.02,-118.11"/>
<polygon fill="black" stroke="black" points="542.52,-118.1 539.02,-108.1 535.52,-118.1 542.52,-118.1"/>
</g>
<!-- y -->
<g id="node8" class="node">
<title>y</title>
<ellipse fill="none" stroke="black" cx="539.02" cy="-18" rx="27" ry="18"/>
<text text-anchor="middle" x="539.02" y="-13.8" font-family="Times,serif" font-size="14.00">y</text>
</g>
<!-- LinearRegression&#45;&gt;y -->
<g id="edge5" class="edge">
<title>LinearRegression&#45;&gt;y</title>
<path fill="none" stroke="black" d="M539.02,-71.7C539.02,-63.98 539.02,-54.71 539.02,-46.11"/>
<polygon fill="black" stroke="black" points="542.52,-46.1 539.02,-36.1 535.52,-46.1 542.52,-46.1"/>
</g>
</g>
</svg>
