<?xml version="1.0" encoding="UTF-8" standalone="no"?>
<!DOCTYPE svg PUBLIC "-//W3C//DTD SVG 1.1//EN"
 "http://www.w3.org/Graphics/SVG/1.1/DTD/svg11.dtd">
<!-- Generated by graphviz version 2.42.3 (20191010.1750)
 -->
<!-- Title: %3 Pages: 1 -->
<svg width="1018pt" height="404pt"
 viewBox="0.00 0.00 1018.15 404.00" xmlns="http://www.w3.org/2000/svg" xmlns:xlink="http://www.w3.org/1999/xlink">
<g id="graph0" class="graph" transform="scale(1 1) rotate(0) translate(4 400)">
<title>%3</title>
<polygon fill="white" stroke="transparent" points="-4,4 -4,-400 1014.15,-400 1014.15,4 -4,4"/>
<!-- x -->
<g id="node1" class="node">
<title>x</title>
<ellipse fill="none" stroke="black" cx="438.47" cy="-378" rx="27" ry="18"/>
<text text-anchor="middle" x="438.47" y="-373.8" font-family="Times,serif" font-size="14.00">x</text>
</g>
<!-- get_date_features -->
<g id="node2" class="node">
<title>get_date_features</title>
<ellipse fill="none" stroke="black" cx="72.47" cy="-306" rx="72.44" ry="18"/>
<text text-anchor="middle" x="72.47" y="-301.8" font-family="Times,serif" font-size="14.00">get_date_features</text>
</g>
<!-- x&#45;&gt;get_date_features -->
<g id="edge1" class="edge">
<title>x&#45;&gt;get_date_features</title>
<path fill="none" stroke="black" d="M412.59,-372.35C362.63,-363.33 249.45,-342.71 154.47,-324 148.38,-322.8 142.05,-321.53 135.72,-320.24"/>
<polygon fill="black" stroke="black" points="136.31,-316.79 125.81,-318.22 134.91,-323.65 136.31,-316.79"/>
</g>
<!-- target_rollingmean_7_by_store_id -->
<g id="node3" class="node">
<title>target_rollingmean_7_by_store_id</title>
<ellipse fill="none" stroke="black" cx="295.47" cy="-306" rx="132.01" ry="18"/>
<text text-anchor="middle" x="295.47" y="-301.8" font-family="Times,serif" font-size="14.00">target_rollingmean_7_by_store_id</text>
</g>
<!-- x&#45;&gt;target_rollingmean_7_by_store_id -->
<g id="edge2" class="edge">
<title>x&#45;&gt;target_rollingmean_7_by_store_id</title>
<path fill="none" stroke="black" d="M417.37,-366.67C396.68,-356.54 364.54,-340.81 338.45,-328.04"/>
<polygon fill="black" stroke="black" points="339.67,-324.74 329.15,-323.49 336.59,-331.03 339.67,-324.74"/>
</g>
<!-- target_rollingmean_14_by_store_id -->
<g id="node4" class="node">
<title>target_rollingmean_14_by_store_id</title>
<ellipse fill="none" stroke="black" cx="582.47" cy="-306" rx="136.86" ry="18"/>
<text text-anchor="middle" x="582.47" y="-301.8" font-family="Times,serif" font-size="14.00">target_rollingmean_14_by_store_id</text>
</g>
<!-- x&#45;&gt;target_rollingmean_14_by_store_id -->
<g id="edge3" class="edge">
<title>x&#45;&gt;target_rollingmean_14_by_store_id</title>
<path fill="none" stroke="black" d="M459.72,-366.67C480.64,-356.5 513.2,-340.67 539.53,-327.87"/>
<polygon fill="black" stroke="black" points="541.09,-331 548.56,-323.49 538.03,-324.71 541.09,-331"/>
</g>
<!-- target_rollingmean_21_by_store_id -->
<g id="node5" class="node">
<title>target_rollingmean_21_by_store_id</title>
<ellipse fill="none" stroke="black" cx="873.47" cy="-306" rx="136.86" ry="18"/>
<text text-anchor="middle" x="873.47" y="-301.8" font-family="Times,serif" font-size="14.00">target_rollingmean_21_by_store_id</text>
</g>
<!-- x&#45;&gt;target_rollingmean_21_by_store_id -->
<g id="edge4" class="edge">
<title>x&#45;&gt;target_rollingmean_21_by_store_id</title>
<path fill="none" stroke="black" d="M464.38,-372.83C525.27,-363.03 679.93,-338.14 780.68,-321.93"/>
<polygon fill="black" stroke="black" points="781.24,-325.39 790.56,-320.34 780.13,-318.47 781.24,-325.39"/>
</g>
<!-- ~[&#39;area_name&#39;, &#39;date&#39;, &#39;genre_name&#39;, &#39;latitude&#39;, &#39;longitude&#39;, &#39;store_id&#39;] -->
<g id="node6" class="node">
<title>~[&#39;area_name&#39;, &#39;date&#39;, &#39;genre_name&#39;, &#39;latitude&#39;, &#39;longitude&#39;, &#39;store_id&#39;]</title>
<ellipse fill="none" stroke="black" cx="438.47" cy="-234" rx="246.82" ry="18"/>
<text text-anchor="middle" x="438.47" y="-229.8" font-family="Times,serif" font-size="14.00">~[&#39;area_name&#39;, &#39;date&#39;, &#39;genre_name&#39;, &#39;latitude&#39;, &#39;longitude&#39;, &#39;store_id&#39;]</text>
</g>
<!-- get_date_features&#45;&gt;~[&#39;area_name&#39;, &#39;date&#39;, &#39;genre_name&#39;, &#39;latitude&#39;, &#39;longitude&#39;, &#39;store_id&#39;] -->
<g id="edge5" class="edge">
<title>get_date_features&#45;&gt;~[&#39;area_name&#39;, &#39;date&#39;, &#39;genre_name&#39;, &#39;latitude&#39;, &#39;longitude&#39;, &#39;store_id&#39;]</title>
<path fill="none" stroke="black" d="M125.81,-293.78C135.35,-291.82 145.2,-289.83 154.47,-288 216.43,-275.8 286.15,-262.78 341,-252.69"/>
<polygon fill="black" stroke="black" points="341.86,-256.1 351.06,-250.85 340.59,-249.21 341.86,-256.1"/>
</g>
<!-- target_rollingmean_7_by_store_id&#45;&gt;~[&#39;area_name&#39;, &#39;date&#39;, &#39;genre_name&#39;, &#39;latitude&#39;, &#39;longitude&#39;, &#39;store_id&#39;] -->
<g id="edge6" class="edge">
<title>target_rollingmean_7_by_store_id&#45;&gt;~[&#39;area_name&#39;, &#39;date&#39;, &#39;genre_name&#39;, &#39;latitude&#39;, &#39;longitude&#39;, &#39;store_id&#39;]</title>
<path fill="none" stroke="black" d="M329.36,-288.41C348.93,-278.83 373.75,-266.68 394.77,-256.39"/>
<polygon fill="black" stroke="black" points="396.39,-259.5 403.83,-251.96 393.31,-253.21 396.39,-259.5"/>
</g>
<!-- target_rollingmean_14_by_store_id&#45;&gt;~[&#39;area_name&#39;, &#39;date&#39;, &#39;genre_name&#39;, &#39;latitude&#39;, &#39;longitude&#39;, &#39;store_id&#39;] -->
<g id="edge7" class="edge">
<title>target_rollingmean_14_by_store_id&#45;&gt;~[&#39;area_name&#39;, &#39;date&#39;, &#39;genre_name&#39;, &#39;latitude&#39;, &#39;longitude&#39;, &#39;store_id&#39;]</title>
<path fill="none" stroke="black" d="M548.34,-288.41C528.64,-278.83 503.64,-266.68 482.47,-256.39"/>
<polygon fill="black" stroke="black" points="483.87,-253.18 473.35,-251.96 480.81,-259.48 483.87,-253.18"/>
</g>
<!-- target_rollingmean_21_by_store_id&#45;&gt;~[&#39;area_name&#39;, &#39;date&#39;, &#39;genre_name&#39;, &#39;latitude&#39;, &#39;longitude&#39;, &#39;store_id&#39;] -->
<g id="edge8" class="edge">
<title>target_rollingmean_21_by_store_id&#45;&gt;~[&#39;area_name&#39;, &#39;date&#39;, &#39;genre_name&#39;, &#39;latitude&#39;, &#39;longitude&#39;, &#39;store_id&#39;]</title>
<path fill="none" stroke="black" d="M790.62,-291.67C721.03,-280.47 621.11,-264.39 545.47,-252.22"/>
<polygon fill="black" stroke="black" points="545.86,-248.74 535.43,-250.6 544.75,-255.65 545.86,-248.74"/>
</g>
<!-- StandardScaler -->
<g id="node7" class="node">
<title>StandardScaler</title>
<ellipse fill="none" stroke="black" cx="438.47" cy="-162" rx="63.78" ry="18"/>
<text text-anchor="middle" x="438.47" y="-157.8" font-family="Times,serif" font-size="14.00">StandardScaler</text>
</g>
<!-- ~[&#39;area_name&#39;, &#39;date&#39;, &#39;genre_name&#39;, &#39;latitude&#39;, &#39;longitude&#39;, &#39;store_id&#39;]&#45;&gt;StandardScaler -->
<g id="edge10" class="edge">
<title>~[&#39;area_name&#39;, &#39;date&#39;, &#39;genre_name&#39;, &#39;latitude&#39;, &#39;longitude&#39;, &#39;store_id&#39;]&#45;&gt;StandardScaler</title>
<path fill="none" stroke="black" d="M438.47,-215.7C438.47,-207.98 438.47,-198.71 438.47,-190.11"/>
<polygon fill="black" stroke="black" points="441.97,-190.1 438.47,-180.1 434.97,-190.1 441.97,-190.1"/>
</g>
<!-- LinearRegression -->
<g id="node8" class="node">
<title>LinearRegression</title>
<ellipse fill="none" stroke="black" cx="438.47" cy="-90" rx="72.46" ry="18"/>
<text text-anchor="middle" x="438.47" y="-85.8" font-family="Times,serif" font-size="14.00">LinearRegression</text>
</g>
<!-- StandardScaler&#45;&gt;LinearRegression -->
<g id="edge11" class="edge">
<title>StandardScaler&#45;&gt;LinearRegression</title>
<path fill="none" stroke="black" d="M438.47,-143.7C438.47,-135.98 438.47,-126.71 438.47,-118.11"/>
<polygon fill="black" stroke="black" points="441.97,-118.1 438.47,-108.1 434.97,-118.1 441.97,-118.1"/>
</g>
<!-- y -->
<g id="node9" class="node">
<title>y</title>
<ellipse fill="none" stroke="black" cx="438.47" cy="-18" rx="27" ry="18"/>
<text text-anchor="middle" x="438.47" y="-13.8" font-family="Times,serif" font-size="14.00">y</text>
</g>
<!-- LinearRegression&#45;&gt;y -->
<g id="edge9" class="edge">
<title>LinearRegression&#45;&gt;y</title>
<path fill="none" stroke="black" d="M438.47,-71.7C438.47,-63.98 438.47,-54.71 438.47,-46.11"/>
<polygon fill="black" stroke="black" points="441.97,-46.1 438.47,-36.1 434.97,-46.1 441.97,-46.1"/>
</g>
</g>
</svg>
