<?xml version="1.0" encoding="UTF-8" standalone="no"?>
<!DOCTYPE svg PUBLIC "-//W3C//DTD SVG 1.1//EN"
 "http://www.w3.org/Graphics/SVG/1.1/DTD/svg11.dtd">
<!-- Generated by graphviz version 2.42.3 (20191010.1750)
 -->
<!-- Title: %3 Pages: 1 -->
<svg width="680pt" height="404pt"
 viewBox="0.00 0.00 679.77 404.00" xmlns="http://www.w3.org/2000/svg" xmlns:xlink="http://www.w3.org/1999/xlink">
<g id="graph0" class="graph" transform="scale(1 1) rotate(0) translate(4 400)">
<title>%3</title>
<polygon fill="white" stroke="transparent" points="-4,4 -4,-400 675.77,-400 675.77,4 -4,4"/>
<!-- x -->
<g id="node1" class="node">
<title>x</title>
<ellipse fill="none" stroke="black" cx="366.02" cy="-378" rx="27" ry="18"/>
<text text-anchor="middle" x="366.02" y="-373.8" font-family="Times,serif" font-size="14.00">x</text>
</g>
<!-- [&#39;clouds&#39;, &#39;humidity&#39;, &#39;pressure&#39;, &#39;temperature&#39;, &#39;wind&#39;] -->
<g id="node2" class="node">
<title>[&#39;clouds&#39;, &#39;humidity&#39;, &#39;pressure&#39;, &#39;temperature&#39;, &#39;wind&#39;]</title>
<ellipse fill="none" stroke="black" cx="194.02" cy="-234" rx="194.05" ry="18"/>
<text text-anchor="middle" x="194.02" y="-229.8" font-family="Times,serif" font-size="14.00">[&#39;clouds&#39;, &#39;humidity&#39;, &#39;pressure&#39;, &#39;temperature&#39;, &#39;wind&#39;]</text>
</g>
<!-- x&#45;&gt;[&#39;clouds&#39;, &#39;humidity&#39;, &#39;pressure&#39;, &#39;temperature&#39;, &#39;wind&#39;] -->
<g id="edge1" class="edge">
<title>x&#45;&gt;[&#39;clouds&#39;, &#39;humidity&#39;, &#39;pressure&#39;, &#39;temperature&#39;, &#39;wind&#39;]</title>
<path fill="none" stroke="black" d="M349.53,-363.38C320.22,-339.18 258.72,-288.41 222.46,-258.48"/>
<polygon fill="black" stroke="black" points="224.63,-255.73 214.69,-252.07 220.18,-261.13 224.63,-255.73"/>
</g>
<!-- get_hour -->
<g id="node3" class="node">
<title>get_hour</title>
<ellipse fill="none" stroke="black" cx="470.02" cy="-306" rx="41.59" ry="18"/>
<text text-anchor="middle" x="470.02" y="-301.8" font-family="Times,serif" font-size="14.00">get_hour</text>
</g>
<!-- x&#45;&gt;get_hour -->
<g id="edge3" class="edge">
<title>x&#45;&gt;get_hour</title>
<path fill="none" stroke="black" d="M384.62,-364.49C399.98,-354.14 422.09,-339.26 439.97,-327.23"/>
<polygon fill="black" stroke="black" points="442.01,-330.07 448.35,-321.59 438.1,-324.27 442.01,-330.07"/>
</g>
<!-- StandardScaler -->
<g id="node5" class="node">
<title>StandardScaler</title>
<ellipse fill="none" stroke="black" cx="366.02" cy="-162" rx="63.78" ry="18"/>
<text text-anchor="middle" x="366.02" y="-157.8" font-family="Times,serif" font-size="14.00">StandardScaler</text>
</g>
<!-- [&#39;clouds&#39;, &#39;humidity&#39;, &#39;pressure&#39;, &#39;temperature&#39;, &#39;wind&#39;]&#45;&gt;StandardScaler -->
<g id="edge6" class="edge">
<title>[&#39;clouds&#39;, &#39;humidity&#39;, &#39;pressure&#39;, &#39;temperature&#39;, &#39;wind&#39;]&#45;&gt;StandardScaler</title>
<path fill="none" stroke="black" d="M235.22,-216.23C261.33,-205.61 295.09,-191.87 321.77,-181.01"/>
<polygon fill="black" stroke="black" points="323.31,-184.16 331.25,-177.15 320.67,-177.68 323.31,-184.16"/>
</g>
<!-- target_mean_by_station_and_hour -->
<g id="node4" class="node">
<title>target_mean_by_station_and_hour</title>
<ellipse fill="none" stroke="black" cx="539.02" cy="-234" rx="132.99" ry="18"/>
<text text-anchor="middle" x="539.02" y="-229.8" font-family="Times,serif" font-size="14.00">target_mean_by_station_and_hour</text>
</g>
<!-- get_hour&#45;&gt;target_mean_by_station_and_hour -->
<g id="edge2" class="edge">
<title>get_hour&#45;&gt;target_mean_by_station_and_hour</title>
<path fill="none" stroke="black" d="M485.68,-289.12C494.3,-280.37 505.18,-269.33 514.86,-259.51"/>
<polygon fill="black" stroke="black" points="517.45,-261.87 521.98,-252.29 512.47,-256.96 517.45,-261.87"/>
</g>
<!-- target_mean_by_station_and_hour&#45;&gt;StandardScaler -->
<g id="edge7" class="edge">
<title>target_mean_by_station_and_hour&#45;&gt;StandardScaler</title>
<path fill="none" stroke="black" d="M498.9,-216.76C472.38,-206.03 437.6,-191.96 410.28,-180.91"/>
<polygon fill="black" stroke="black" points="411.54,-177.64 400.95,-177.13 408.91,-184.13 411.54,-177.64"/>
</g>
<!-- LinearRegression -->
<g id="node6" class="node">
<title>LinearRegression</title>
<ellipse fill="none" stroke="black" cx="366.02" cy="-90" rx="72.46" ry="18"/>
<text text-anchor="middle" x="366.02" y="-85.8" font-family="Times,serif" font-size="14.00">LinearRegression</text>
</g>
<!-- StandardScaler&#45;&gt;LinearRegression -->
<g id="edge5" class="edge">
<title>StandardScaler&#45;&gt;LinearRegression</title>
<path fill="none" stroke="black" d="M366.02,-143.7C366.02,-135.98 366.02,-126.71 366.02,-118.11"/>
<polygon fill="black" stroke="black" points="369.52,-118.1 366.02,-108.1 362.52,-118.1 369.52,-118.1"/>
</g>
<!-- y -->
<g id="node7" class="node">
<title>y</title>
<ellipse fill="none" stroke="black" cx="366.02" cy="-18" rx="27" ry="18"/>
<text text-anchor="middle" x="366.02" y="-13.8" font-family="Times,serif" font-size="14.00">y</text>
</g>
<!-- LinearRegression&#45;&gt;y -->
<g id="edge4" class="edge">
<title>LinearRegression&#45;&gt;y</title>
<path fill="none" stroke="black" d="M366.02,-71.7C366.02,-63.98 366.02,-54.71 366.02,-46.11"/>
<polygon fill="black" stroke="black" points="369.52,-46.1 366.02,-36.1 362.52,-46.1 369.52,-46.1"/>
</g>
</g>
</svg>
