<?xml version="1.0" encoding="UTF-8" standalone="no"?>
<!DOCTYPE svg PUBLIC "-//W3C//DTD SVG 1.1//EN"
 "http://www.w3.org/Graphics/SVG/1.1/DTD/svg11.dtd">
<!-- Generated by graphviz version 2.42.3 (20191010.1750)
 -->
<!-- Title: %3 Pages: 1 -->
<svg width="174pt" height="332pt"
 viewBox="0.00 0.00 173.61 332.00" xmlns="http://www.w3.org/2000/svg" xmlns:xlink="http://www.w3.org/1999/xlink">
<g id="graph0" class="graph" transform="scale(1 1) rotate(0) translate(4 328)">
<title>%3</title>
<polygon fill="white" stroke="transparent" points="-4,4 -4,-328 169.61,-328 169.61,4 -4,4"/>
<!-- x -->
<g id="node1" class="node">
<title>x</title>
<ellipse fill="none" stroke="black" cx="82.81" cy="-306" rx="27" ry="18"/>
<text text-anchor="middle" x="82.81" y="-301.8" font-family="Times,serif" font-size="14.00">x</text>
</g>
<!-- StandardScaler -->
<g id="node2" class="node">
<title>StandardScaler</title>
<ellipse fill="none" stroke="black" cx="82.81" cy="-234" rx="63.78" ry="18"/>
<text text-anchor="middle" x="82.81" y="-229.8" font-family="Times,serif" font-size="14.00">StandardScaler</text>
</g>
<!-- x&#45;&gt;StandardScaler -->
<g id="edge1" class="edge">
<title>x&#45;&gt;StandardScaler</title>
<path fill="none" stroke="black" d="M82.81,-287.7C82.81,-279.98 82.81,-270.71 82.81,-262.11"/>
<polygon fill="black" stroke="black" points="86.31,-262.1 82.81,-252.1 79.31,-262.1 86.31,-262.1"/>
</g>
<!-- PolynomialExtender -->
<g id="node3" class="node">
<title>PolynomialExtender</title>
<ellipse fill="none" stroke="black" cx="82.81" cy="-162" rx="82.61" ry="18"/>
<text text-anchor="middle" x="82.81" y="-157.8" font-family="Times,serif" font-size="14.00">PolynomialExtender</text>
</g>
<!-- StandardScaler&#45;&gt;PolynomialExtender -->
<g id="edge4" class="edge">
<title>StandardScaler&#45;&gt;PolynomialExtender</title>
<path fill="none" stroke="black" d="M82.81,-215.7C82.81,-207.98 82.81,-198.71 82.81,-190.11"/>
<polygon fill="black" stroke="black" points="86.31,-190.1 82.81,-180.1 79.31,-190.1 86.31,-190.1"/>
</g>
<!-- LinearRegression -->
<g id="node4" class="node">
<title>LinearRegression</title>
<ellipse fill="none" stroke="black" cx="82.81" cy="-90" rx="72.46" ry="18"/>
<text text-anchor="middle" x="82.81" y="-85.8" font-family="Times,serif" font-size="14.00">LinearRegression</text>
</g>
<!-- PolynomialExtender&#45;&gt;LinearRegression -->
<g id="edge3" class="edge">
<title>PolynomialExtender&#45;&gt;LinearRegression</title>
<path fill="none" stroke="black" d="M82.81,-143.7C82.81,-135.98 82.81,-126.71 82.81,-118.11"/>
<polygon fill="black" stroke="black" points="86.31,-118.1 82.81,-108.1 79.31,-118.1 86.31,-118.1"/>
</g>
<!-- y -->
<g id="node5" class="node">
<title>y</title>
<ellipse fill="none" stroke="black" cx="82.81" cy="-18" rx="27" ry="18"/>
<text text-anchor="middle" x="82.81" y="-13.8" font-family="Times,serif" font-size="14.00">y</text>
</g>
<!-- LinearRegression&#45;&gt;y -->
<g id="edge2" class="edge">
<title>LinearRegression&#45;&gt;y</title>
<path fill="none" stroke="black" d="M82.81,-71.7C82.81,-63.98 82.81,-54.71 82.81,-46.11"/>
<polygon fill="black" stroke="black" points="86.31,-46.1 82.81,-36.1 79.31,-46.1 86.31,-46.1"/>
</g>
</g>
</svg>
