<?xml version="1.0" encoding="UTF-8" standalone="no"?>
<!DOCTYPE svg PUBLIC "-//W3C//DTD SVG 1.1//EN"
 "http://www.w3.org/Graphics/SVG/1.1/DTD/svg11.dtd">
<!-- Generated by graphviz version 2.42.3 (20191010.1750)
 -->
<!-- Title: %3 Pages: 1 -->
<svg width="115pt" height="260pt"
 viewBox="0.00 0.00 114.94 260.00" xmlns="http://www.w3.org/2000/svg" xmlns:xlink="http://www.w3.org/1999/xlink">
<g id="graph0" class="graph" transform="scale(1 1) rotate(0) translate(4 256)">
<title>%3</title>
<polygon fill="white" stroke="transparent" points="-4,4 -4,-256 110.94,-256 110.94,4 -4,4"/>
<!-- x -->
<g id="node1" class="node">
<title>x</title>
<polygon fill="none" stroke="black" stroke-width="1.2" points="80.47,-252 26.47,-252 26.47,-216 80.47,-216 80.47,-252"/>
<text text-anchor="middle" x="53.47" y="-230.7" font-family="trebuchet" font-size="11.00">x</text>
</g>
<!-- StandardScaler -->
<g id="node2" class="node">
<title>StandardScaler</title>
<polygon fill="none" stroke="black" stroke-width="1.2" points="98.29,-180 8.64,-180 8.64,-144 98.29,-144 98.29,-180"/>
<text text-anchor="middle" x="53.47" y="-158.7" font-family="trebuchet" font-size="11.00">StandardScaler</text>
</g>
<!-- x&#45;&gt;StandardScaler -->
<g id="edge1" class="edge">
<title>x&#45;&gt;StandardScaler</title>
<path fill="none" stroke="black" stroke-width="0.6" d="M53.47,-215.83C53.47,-215.83 53.47,-190.41 53.47,-190.41"/>
<polygon fill="black" stroke="black" stroke-width="0.6" points="56.97,-190.41 53.47,-180.41 49.97,-190.41 56.97,-190.41"/>
</g>
<!-- LogisticRegression -->
<g id="node3" class="node">
<title>LogisticRegression</title>
<polygon fill="none" stroke="black" stroke-width="1.2" points="106.9,-108 0.03,-108 0.03,-72 106.9,-72 106.9,-108"/>
<text text-anchor="middle" x="53.47" y="-86.7" font-family="trebuchet" font-size="11.00">LogisticRegression</text>
</g>
<!-- StandardScaler&#45;&gt;LogisticRegression -->
<g id="edge3" class="edge">
<title>StandardScaler&#45;&gt;LogisticRegression</title>
<path fill="none" stroke="black" stroke-width="0.6" d="M53.47,-143.83C53.47,-143.83 53.47,-118.41 53.47,-118.41"/>
<polygon fill="black" stroke="black" stroke-width="0.6" points="56.97,-118.41 53.47,-108.41 49.97,-118.41 56.97,-118.41"/>
</g>
<!-- y -->
<g id="node4" class="node">
<title>y</title>
<polygon fill="none" stroke="black" stroke-width="1.2" points="80.47,-36 26.47,-36 26.47,0 80.47,0 80.47,-36"/>
<text text-anchor="middle" x="53.47" y="-14.7" font-family="trebuchet" font-size="11.00">y</text>
</g>
<!-- LogisticRegression&#45;&gt;y -->
<g id="edge2" class="edge">
<title>LogisticRegression&#45;&gt;y</title>
<path fill="none" stroke="black" stroke-width="0.6" d="M53.47,-71.83C53.47,-71.83 53.47,-46.41 53.47,-46.41"/>
<polygon fill="black" stroke="black" stroke-width="0.6" points="56.97,-46.41 53.47,-36.41 49.97,-46.41 56.97,-46.41"/>
</g>
</g>
</svg>
